<svg width="44" height="36" viewBox="0 0 44 36" fill="none" xmlns="http://www.w3.org/2000/svg">
<path fill-rule="evenodd" clip-rule="evenodd" d="M5.15691 0.894043C2.83015 0.894043 0.947266 2.77779 0.947266 5.10454C0.947266 7.43042 2.83027 9.31504 5.15703 9.31504C7.48379 9.31504 9.3683 7.43042 9.3683 5.10454C9.36842 2.77867 7.48367 0.894043 5.15691 0.894043ZM5.15703 6.78867C4.22815 6.78954 3.47365 6.03329 3.47365 5.10454C3.47365 4.17579 4.22815 3.42042 5.15703 3.42042C6.08679 3.42042 6.84204 4.17579 6.84204 5.10454C6.84216 6.03329 6.08679 6.78867 5.15703 6.78867ZM33.579 26.158C33.579 23.3673 35.84 21.1054 38.6317 21.1054C41.4224 21.1054 43.6843 23.3673 43.6843 26.158C43.6843 28.9488 41.4224 31.2107 38.6317 31.2107C35.8402 31.2107 33.579 28.9488 33.579 26.158ZM36.1053 26.158C36.1053 27.5509 37.2388 28.6844 38.6317 28.6844C40.0245 28.6844 41.158 27.5509 41.158 26.158C41.158 24.7652 40.0245 23.6317 38.6317 23.6317C37.2388 23.6317 36.1053 24.7652 36.1053 26.158ZM20.2494 23.9165L20.2519 23.9057L20.2674 23.8316L20.2494 23.9165ZM7.31657 35.2565V35.2541L7.33328 35.1763L7.31657 35.2565Z" fill="#F07C52"/>
</svg>
