<svg width="83" height="28" viewBox="0 0 83 28" fill="none" xmlns="http://www.w3.org/2000/svg">
<path d="M10.64 28V4.16H5.96046e-08V-1.90735e-06H25.84V4.16H14.96V28H10.64ZM56.6188 -1.90735e-06L44.0188 28H38.8188L25.8988 -1.90735e-06H30.7788L38.2588 16.68C38.7121 17.7467 39.2454 18.9333 39.8588 20.24C40.4988 21.52 41.0588 22.7467 41.5388 23.92C42.0188 22.7467 42.5388 21.5333 43.0988 20.28C43.6854 19 44.1921 17.8267 44.6188 16.76L51.5388 -1.90735e-06H56.6188ZM82.6247 23.84V28H59.5847V-1.90735e-06H63.9047V23.84H82.6247Z" fill="white"/>
</svg>
